<svg width="22" height="22" viewBox="0 0 22 22" fill="none" xmlns="http://www.w3.org/2000/svg">
<path fill-rule="evenodd" clip-rule="evenodd" d="M5.58341 0.167236H16.4167C19.4083 0.167236 21.8334 2.59236 21.8334 5.5839V16.4172C21.8334 19.4088 19.4083 21.8339 16.4167 21.8339H5.58341C2.59187 21.8339 0.166748 19.4088 0.166748 16.4172V5.5839C0.166748 2.59236 2.59187 0.167236 5.58341 0.167236ZM14.8933 12.9495C15.3131 12.1405 15.4671 11.2197 15.3334 10.3181C15.197 9.39843 14.7685 8.54701 14.1111 7.8896C13.4537 7.23219 12.6023 6.80364 11.6826 6.66727C10.781 6.53357 9.86018 6.68757 9.05115 7.10736C8.24212 7.52715 7.58605 8.19136 7.17627 9.00551C6.76649 9.81965 6.62385 10.7423 6.76866 11.6422C6.91346 12.542 7.33833 13.3734 7.98283 14.0179C8.62733 14.6624 9.45864 15.0872 10.3585 15.232C11.2584 15.3768 12.181 15.2342 12.9952 14.8244C13.8093 14.4146 14.4735 13.7586 14.8933 12.9495Z" fill="#033D5A"/>
</svg>
