<svg width="16" height="16" viewBox="0 0 16 16" fill="none" xmlns="http://www.w3.org/2000/svg">
<path d="M7.09101 0.954945C7.34208 0.182233 8.43526 0.182233 8.68633 0.954946L9.94551 4.8303C10.0578 5.17586 10.3798 5.40983 10.7432 5.40983H14.818C15.6304 5.40983 15.9682 6.44951 15.3109 6.92707L12.0144 9.32217C11.7204 9.53574 11.5974 9.91431 11.7097 10.2599L12.9689 14.1352C13.2199 14.9079 12.3355 15.5505 11.6782 15.0729L8.38165 12.6778C8.0877 12.4643 7.68965 12.4643 7.39569 12.6778L4.09912 15.0729C3.44181 15.5505 2.55741 14.9079 2.80848 14.1352L4.06766 10.2599C4.17994 9.91431 4.05694 9.53574 3.76298 9.32217L0.466408 6.92707C-0.1909 6.44951 0.146912 5.40983 0.959389 5.40983H5.03417C5.39752 5.40983 5.71955 5.17586 5.83183 4.8303L7.09101 0.954945Z" fill="#F6B704"/>
</svg>
