<svg width="30" height="30" viewBox="0 0 30 30" fill="none" xmlns="http://www.w3.org/2000/svg">
<path fill-rule="evenodd" clip-rule="evenodd" d="M26.3599 7.99053C26.735 8.37728 27.0015 8.85619 27.1323 9.37888C27.4817 11.3158 27.6513 13.2809 27.6389 15.249C27.6459 17.1878 27.4763 19.1231 27.1323 21.0311C27.0015 21.5538 26.735 22.0327 26.3599 22.4195C25.9847 22.8062 25.5141 23.0871 24.9957 23.2338C23.1014 23.7404 15.5241 23.7404 15.5241 23.7404C15.5241 23.7404 7.94686 23.7404 6.05255 23.2338C5.54463 23.0948 5.08114 22.8272 4.70686 22.4568C4.33259 22.0864 4.06017 21.6257 3.91594 21.1192C3.56656 19.1823 3.39696 17.2172 3.40932 15.249C3.39967 13.2956 3.56925 11.3454 3.91594 9.42293C4.04677 8.90024 4.31321 8.42134 4.68836 8.03458C5.06352 7.64783 5.53409 7.36692 6.05255 7.22024C7.94686 6.71362 15.5241 6.71362 15.5241 6.71362C15.5241 6.71362 23.1014 6.71362 24.9957 7.17619C25.5141 7.32287 25.9847 7.60377 26.3599 7.99053ZM19.3788 15.249L13.0461 18.8504V11.6476L19.3788 15.249Z" fill="#033D5A"/>
</svg>
